<?xml version="1.0" encoding="UTF-8" standalone="no" ?>
<!DOCTYPE svg PUBLIC "-//W3C//DTD SVG 1.1//EN" "http://www.w3.org/Graphics/SVG/1.1/DTD/svg11.dtd">
<svg xmlns="http://www.w3.org/2000/svg" xmlns:xlink="http://www.w3.org/1999/xlink" version="1.1" width="160" height="160" viewBox="0 0 640 640" xml:space="preserve">
<desc>Created with Fabric.js 4.6.0</desc>
<defs>
</defs>
<g transform="matrix(3.6 0 0 3.6 320.75 320.61)" id="Av7dtxcW-oKhnM78XcGl-"  >
<path style="stroke: rgb(255,255,255); stroke-width: 0; stroke-dasharray: none; stroke-linecap: butt; stroke-dashoffset: 0; stroke-linejoin: miter; stroke-miterlimit: 4; fill: rgb(17,17,17); fill-opacity: 0.85; fill-rule: nonzero; opacity: 1;" vector-effect="non-scaling-stroke"  transform=" translate(0, 0)" d="M 0 -82.17195 C 45.35892 -82.17195 82.17195 -45.35892 82.17195 0 C 82.17195 45.35892 45.35892 82.17195 0 82.17195 C -45.35892 82.17195 -82.17195 45.35892 -82.17195 0 C -82.17195 -45.35892 -45.35892 -82.17195 0 -82.17195 z" stroke-linecap="round" />
</g>
<g transform="matrix(6.65 0 0 1.28 317.22 176.78)" id="22M_pXZESfql-tahjJmwB"  >
<path style="stroke: rgb(169,146,120); stroke-width: 0; stroke-dasharray: none; stroke-linecap: butt; stroke-dashoffset: 0; stroke-linejoin: miter; stroke-miterlimit: 4; fill: rgb(255,133,27); fill-rule: nonzero; opacity: 1;" vector-effect="non-scaling-stroke"  transform=" translate(0, 0)" d="M -25.33937 -25.33937 L 25.339360000000003 -25.33937 L 25.339360000000003 25.339360000000003 L -25.33937 25.339360000000003 z" stroke-linecap="round" />
</g>
<g transform="matrix(2.69 0 0 1.55 368.74 297.93)" id="283Jno8eiItoy9uS2IQ1K"  >
<path style="stroke: rgb(126,127,137); stroke-width: 0; stroke-dasharray: none; stroke-linecap: butt; stroke-dashoffset: 0; stroke-linejoin: miter; stroke-miterlimit: 4; fill: rgb(255,133,27); fill-rule: nonzero; opacity: 1;" vector-effect="non-scaling-stroke"  transform=" translate(0, 0)" d="M -20.99547 -20.99547 L 20.995479999999997 -20.99547 L 20.995479999999997 20.995479999999997 L -20.99547 20.995479999999997 z" stroke-linecap="round" />
</g>
<g transform="matrix(0.45 0 0 2.63 312.29 333.7)" id="IS8JIKEerHiBgghkV6yjq"  >
<path style="stroke: rgb(233,61,90); stroke-width: 0; stroke-dasharray: none; stroke-linecap: butt; stroke-dashoffset: 0; stroke-linejoin: miter; stroke-miterlimit: 4; fill: rgb(255,133,27); fill-rule: nonzero; opacity: 1;" vector-effect="non-scaling-stroke"  transform=" translate(0, 0)" d="M -72.0362 -72.0362 L 72.0362 -72.0362 L 72.0362 72.0362 L -72.0362 72.0362 z" stroke-linecap="round" />
</g>
</svg>